# xmcd CD database file
#
# Track frame offsets:
#	150
#	49720
#	86740
#	116352
#	146457
#	184382
#	208365
#	227387
#	259285
#	285920
#
# Disc length: 4288 seconds
#
# Revision: 0
# Processed by: cddbd v1.5.1PL0 Copyright (c) Steve Scherf et al.
# Submitted via: CDex 1.50
#
DISCID=8d10be0a
DTITLE=omunibus - Blue Note For You [Standards]
DYEAR=1900
DGENRE=Jazz
TTITLE0=Autumn Leaves
TTITLE1=Recado Bossa Nova
TTITLE2=Softly As In A Morning Sunrise
TTITLE3=April In Paris
TTITLE4=Manha De Carnaval
TTITLE5=What's New
TTITLE6=Dear Old Stockholm
TTITLE7=Candy
TTITLE8=Yesterdays
TTITLE9=I'm Old Fashioned
EXTD=
EXTT0=
EXTT1=
EXTT2=
EXTT3=
EXTT4=
EXTT5=
EXTT6=
EXTT7=
EXTT8=
EXTT9=
PLAYORDER=
